<svg xmlns="http://www.w3.org/2000/svg" width="960" height="470" viewBox="0 0 960 470" fill="#344054"><rect width="100%" height="100%" rx="18" fill="#fbfcfe"/><text x="480" y="30" text-anchor="middle" font-size="20" font-weight="700" fill="#172033">Held-value dropout repaired on the plausible revolution</text><line x1="74.0" y1="58.0" x2="920.0" y2="58.0" stroke="#dce2ec"/><text x="64.0" y="62.0" text-anchor="end" font-size="11" fill="#596579">1550</text><line x1="74.0" y1="144.2" x2="920.0" y2="144.2" stroke="#dce2ec"/><text x="64.0" y="148.2" text-anchor="end" font-size="11" fill="#596579">1238</text><line x1="74.0" y1="230.5" x2="920.0" y2="230.5" stroke="#dce2ec"/><text x="64.0" y="234.5" text-anchor="end" font-size="11" fill="#596579">925</text><line x1="74.0" y1="316.8" x2="920.0" y2="316.8" stroke="#dce2ec"/><text x="64.0" y="320.8" text-anchor="end" font-size="11" fill="#596579">612</text><line x1="74.0" y1="403.0" x2="920.0" y2="403.0" stroke="#dce2ec"/><text x="64.0" y="407.0" text-anchor="end" font-size="11" fill="#596579">300</text><line x1="74.0" y1="58.0" x2="74.0" y2="403.0" stroke="#edf0f5"/><text x="74.0" y="424.0" text-anchor="middle" font-size="11" fill="#596579">0.000</text><line x1="243.2" y1="58.0" x2="243.2" y2="403.0" stroke="#edf0f5"/><text x="243.2" y="424.0" text-anchor="middle" font-size="11" fill="#596579">0.036</text><line x1="412.4" y1="58.0" x2="412.4" y2="403.0" stroke="#edf0f5"/><text x="412.4" y="424.0" text-anchor="middle" font-size="11" fill="#596579">0.072</text><line x1="581.6" y1="58.0" x2="581.6" y2="403.0" stroke="#edf0f5"/><text x="581.6" y="424.0" text-anchor="middle" font-size="11" fill="#596579">0.108</text><line x1="750.8" y1="58.0" x2="750.8" y2="403.0" stroke="#edf0f5"/><text x="750.8" y="424.0" text-anchor="middle" font-size="11" fill="#596579">0.144</text><line x1="920.0" y1="58.0" x2="920.0" y2="403.0" stroke="#edf0f5"/><text x="920.0" y="424.0" text-anchor="middle" font-size="11" fill="#596579">0.180</text><rect x="403.0" y="58.0" width="211.5" height="345.0" fill="#efb366" opacity=".16"><title>detected gap</title></rect><path d="M74.0,394.7 L84.6,390.9 L95.2,387.0 L105.7,382.9 L116.3,378.7 L126.9,374.3 L137.4,369.9 L148.0,365.2 L158.6,360.5 L169.2,355.6 L179.8,350.6 L190.3,345.5 L200.9,340.3 L211.5,334.9 L222.1,329.5 L232.6,324.0 L243.2,318.3 L253.8,312.6 L264.4,306.8 L274.9,300.9 L285.5,295.0 L296.1,289.0 L306.6,282.9 L317.2,276.8 L327.8,270.7 L338.4,264.5 L348.9,258.3 L359.5,252.1 L370.1,245.9 L380.7,239.7 L391.2,233.5 L401.8,227.3 L412.4,221.2 L423.0,215.1 L433.5,209.0 L444.1,202.9 L454.7,197.0 L465.3,191.0 L475.9,185.2 L486.4,179.4 L497.0,173.8 L507.6,168.2 L518.1,162.7 L528.7,157.3 L539.3,152.0 L549.9,146.8 L560.5,141.7 L571.0,136.8 L581.6,132.0 L592.2,127.3 L602.8,122.7 L613.3,118.3 L623.9,114.0 L634.5,109.8 L645.1,105.8 L655.6,102.0 L666.2,98.2 L676.8,94.6 L687.3,91.2 L697.9,87.9 L708.5,84.7 L719.1,81.6 L729.6,78.7 L740.2,76.0 L750.8,73.3 L761.4,70.8 L772.0,68.4 L782.5,66.1 L793.1,63.9 L803.7,61.9 L814.2,59.9 L824.8,58.0 L835.4,56.3 L846.0,54.6 L856.5,52.9 L867.1,51.4 L877.7,49.9 L888.3,48.5 L898.8,47.1 L909.4,45.8 L920.0,44.5" fill="none" stroke="#8090a7" stroke-width="2.6" stroke-linecap="round" stroke-linejoin="round" stroke-dasharray="7 5"/><path d="M74.0,394.7 L84.6,390.9 L95.2,387.0 L105.7,382.9 L116.3,378.7 L126.9,374.3 L137.4,369.9 L148.0,365.2 L158.6,360.5 L169.2,355.6 L179.8,350.6 L190.3,345.5 L200.9,340.3 L211.5,334.9 L222.1,329.5 L232.6,324.0 L243.2,318.3 L253.8,312.6 L264.4,306.8 L274.9,300.9 L285.5,295.0 L296.1,289.0 L306.6,282.9 L317.2,276.8 L327.8,270.7 L338.4,264.5 L348.9,258.3 L359.5,252.1 L370.1,245.9 L380.7,239.7 L391.2,233.5 L401.8,227.3 L412.4,221.1 L423.0,215.0 L433.5,208.9 L444.1,202.8 L454.7,196.9 L465.3,191.0 L475.9,185.2 L486.4,179.4 L497.0,173.7 L507.6,168.2 L518.1,162.7 L528.7,157.3 L539.3,152.0 L549.9,146.8 L560.5,141.8 L571.0,136.8 L581.6,132.0 L592.2,127.3 L602.8,122.7 L613.3,118.3 L623.9,114.0 L634.5,109.8 L645.1,105.8 L655.6,102.0 L666.2,98.2 L676.8,94.6 L687.3,91.2 L697.9,87.9 L708.5,84.7 L719.1,81.6 L729.6,78.7 L740.2,76.0 L750.8,73.3 L761.4,70.8 L772.0,68.4 L782.5,66.1 L793.1,63.9 L803.7,61.9 L814.2,59.9 L824.8,58.0 L835.4,56.3 L846.0,54.6 L856.5,52.9 L867.1,51.4 L877.7,49.9 L888.3,48.5 L898.8,47.1 L909.4,45.8 L920.0,44.5" fill="none" stroke="#1769aa" stroke-width="2.6" stroke-linecap="round" stroke-linejoin="round"/><circle cx="74.0" cy="394.7" r="3.1" fill="#26364d" stroke="#fff" stroke-width=".8"/><circle cx="121.0" cy="376.8" r="3.1" fill="#26364d" stroke="#fff" stroke-width=".8"/><circle cx="168.0" cy="356.2" r="3.1" fill="#26364d" stroke="#fff" stroke-width=".8"/><circle cx="215.0" cy="333.1" r="3.1" fill="#26364d" stroke="#fff" stroke-width=".8"/><circle cx="262.0" cy="308.1" r="3.1" fill="#26364d" stroke="#fff" stroke-width=".8"/><circle cx="309.0" cy="281.6" r="3.1" fill="#26364d" stroke="#fff" stroke-width=".8"/><circle cx="356.0" cy="254.2" r="3.1" fill="#26364d" stroke="#fff" stroke-width=".8"/><circle cx="619.2" cy="115.9" r="3.1" fill="#26364d" stroke="#fff" stroke-width=".8"/><circle cx="666.2" cy="98.2" r="3.1" fill="#26364d" stroke="#fff" stroke-width=".8"/><circle cx="713.2" cy="83.3" r="3.1" fill="#26364d" stroke="#fff" stroke-width=".8"/><circle cx="760.2" cy="71.1" r="3.1" fill="#26364d" stroke="#fff" stroke-width=".8"/><circle cx="807.2" cy="61.2" r="3.1" fill="#26364d" stroke="#fff" stroke-width=".8"/><circle cx="854.2" cy="53.3" r="3.1" fill="#26364d" stroke="#fff" stroke-width=".8"/><circle cx="901.2" cy="46.8" r="3.1" fill="#26364d" stroke="#fff" stroke-width=".8"/><path d="M400.0,226.4L406.0,232.4M400.0,232.4L406.0,226.4" stroke="#d1495b" stroke-width="1.6"/><path d="M447.0,226.4L453.0,232.4M447.0,232.4L453.0,226.4" stroke="#d1495b" stroke-width="1.6"/><path d="M494.0,226.4L500.0,232.4M494.0,232.4L500.0,226.4" stroke="#d1495b" stroke-width="1.6"/><path d="M541.0,226.4L547.0,232.4M541.0,232.4L547.0,226.4" stroke="#d1495b" stroke-width="1.6"/><path d="M588.0,226.4L594.0,232.4M588.0,232.4L594.0,226.4" stroke="#d1495b" stroke-width="1.6"/><line x1="74.0" y1="403.0" x2="920.0" y2="403.0" stroke="#687386"/><line x1="74.0" y1="58.0" x2="74.0" y2="403.0" stroke="#687386"/><text x="497.0" y="453" text-anchor="middle" font-size="13" fill="#344054">Time [s]</text><text x="18" y="230.5" transform="rotate(-90 18 230.5)" text-anchor="middle" font-size="13" fill="#344054">Unwrapped angle [deg]</text><line x1="80.0" y1="72.0" x2="96.0" y2="72.0" stroke="#8090a7" stroke-width="2.7"/><text x="102.0" y="76.0" font-size="11" fill="#344054">hidden physical motion</text><line x1="380.0" y1="72.0" x2="396.0" y2="72.0" stroke="#1769aa" stroke-width="2.7"/><text x="402.0" y="76.0" font-size="11" fill="#344054">direct reconstruction</text><circle cx="88.0" cy="94.0" r="3.2" fill="#26364d"/><text x="102.0" y="98.0" font-size="11" fill="#344054">valid samples</text><circle cx="388.0" cy="94.0" r="3.2" fill="#d1495b"/><text x="402.0" y="98.0" font-size="11" fill="#344054">held sensor value</text><text x="912.0" y="391.0" text-anchor="end" font-size="11" font-weight="600" fill="#344054">The winding number is retained.</text></svg>